<?xml version="1.0" standalone="no"?>
<!DOCTYPE svg PUBLIC "-//W3C//DTD SVG 20010904//EN"
 "http://www.w3.org/TR/2001/REC-SVG-20010904/DTD/svg10.dtd">
<svg version="1.0" xmlns="http://www.w3.org/2000/svg"
 width="1312.000000pt" height="1312.000000pt" viewBox="0 0 1312.000000 1312.000000"
 preserveAspectRatio="xMidYMid meet">
<metadata>
Created by potrace 1.11, written by Peter Selinger 2001-2013
</metadata>
<g transform="translate(0.000000,1312.000000) scale(0.100000,-0.100000)"
fill="#000000" stroke="none">
<path d="M11445 10390 c-22 -5 -56 -10 -75 -13 -127 -17 -327 -96 -453 -179
-32 -21 -60 -38 -63 -38 -2 0 -12 -8 -22 -17 -11 -10 -37 -33 -59 -51 -187
-150 -349 -406 -409 -647 -4 -16 -8 -34 -10 -40 -33 -135 -37 -344 -9 -510 2
-11 4 -20 5 -20 1 0 3 -11 6 -24 8 -46 36 -136 54 -176 9 -22 25 -58 35 -80
27 -61 83 -153 138 -225 52 -68 245 -260 261 -260 3 0 34 -20 70 -45 36 -25
66 -42 66 -39 0 3 12 -3 28 -13 34 -24 145 -73 164 -73 8 0 18 -3 22 -7 4 -5
12 -9 17 -9 5 -1 10 -2 12 -4 1 -1 10 -3 20 -6 9 -2 23 -6 30 -7 36 -10 65
-17 92 -22 146 -28 403 -25 520 5 22 6 47 12 56 14 331 80 649 329 811 636 37
69 70 149 68 164 -1 5 2 12 7 15 8 5 23 48 38 114 2 10 6 26 9 35 14 45 21
142 20 287 -2 200 -15 263 -105 495 -8 19 -20 41 -27 48 -7 8 -10 18 -7 23 4
5 1 9 -4 9 -6 0 -11 5 -11 12 0 14 -91 148 -135 198 -82 95 -180 182 -270 241
-158 103 -297 159 -497 200 -64 13 -337 19 -393 9z"/>
<path d="M6107 9665 c-1 -2 -36 -5 -77 -8 -62 -5 -137 -17 -195 -31 -26 -6
-132 -38 -145 -43 -8 -3 -18 -7 -22 -8 -5 -2 -10 -4 -13 -5 -3 -1 -8 -3 -12
-4 -15 -4 -140 -66 -147 -73 -4 -5 -11 -8 -14 -8 -11 -1 -97 -57 -100 -66 -2
-5 -8 -9 -14 -9 -5 0 -15 -6 -23 -12 -7 -7 -46 -42 -87 -78 -40 -35 -125 -129
-188 -209 -63 -79 -123 -153 -132 -165 -10 -11 -52 -64 -93 -116 -41 -52 -81
-102 -88 -110 -6 -8 -30 -37 -51 -65 -22 -27 -45 -55 -51 -62 -5 -7 -14 -18
-20 -25 -5 -7 -36 -46 -69 -86 -50 -63 -54 -72 -30 -59 71 36 158 -13 245
-138 51 -73 120 -190 159 -270 19 -38 37 -72 40 -75 3 -3 16 -27 30 -55 14
-27 48 -90 75 -140 28 -49 54 -97 58 -105 4 -8 17 -31 28 -50 12 -19 32 -55
46 -80 13 -25 33 -61 45 -80 11 -19 30 -53 41 -75 12 -22 27 -47 33 -55 6 -8
25 -40 41 -70 17 -30 39 -71 50 -90 11 -19 35 -62 53 -95 19 -33 36 -62 39
-65 4 -3 11 -14 17 -25 6 -11 23 -42 39 -70 16 -27 34 -61 42 -75 8 -14 25
-43 38 -65 23 -37 78 -133 150 -261 17 -30 36 -59 43 -66 7 -7 12 -16 12 -20
0 -5 11 -27 26 -49 14 -22 33 -55 43 -72 10 -18 62 -107 115 -198 53 -92 96
-172 96 -178 0 -6 5 -11 10 -11 6 0 14 -8 17 -17 4 -10 23 -45 42 -78 41 -70
69 -118 112 -197 18 -32 36 -58 40 -58 5 0 9 -4 9 -10 0 -10 79 -90 131 -132
69 -57 224 -121 324 -136 68 -10 340 -8 390 2 22 5 47 10 55 11 8 0 25 7 37
13 12 7 28 12 35 12 14 0 140 60 148 71 3 3 23 17 45 31 83 52 189 168 272
298 23 36 47 70 52 77 6 7 11 14 11 17 0 5 69 116 87 142 5 5 13 19 20 30 100
169 219 361 227 366 6 4 8 8 4 8 -5 0 12 30 35 68 24 37 46 74 50 82 4 8 17
32 30 52 12 21 44 75 71 120 27 45 56 96 66 112 9 17 31 54 47 82 l30 50 -48
80 c-27 43 -52 86 -56 94 -3 8 -9 17 -12 20 -7 6 -28 42 -49 83 -7 15 -18 27
-23 27 -5 0 -9 9 -9 19 0 11 -5 23 -10 26 -6 4 -20 23 -31 43 -29 52 -52 91
-154 259 -112 185 -100 165 -165 273 -30 50 -60 99 -65 108 -55 91 -85 145
-85 153 0 5 -4 9 -9 9 -5 0 -16 15 -24 33 -9 18 -26 48 -39 67 -13 19 -45 71
-72 115 -26 44 -51 87 -56 95 -65 106 -146 241 -160 265 -46 81 -265 441 -271
445 -3 3 -9 15 -13 28 -4 12 -12 22 -17 22 -6 0 -8 4 -5 8 2 4 -9 23 -25 41
-16 19 -29 37 -29 42 0 15 -114 123 -165 157 -108 70 -125 81 -125 77 0 -3
-15 4 -34 14 -59 33 -70 39 -123 60 -85 34 -253 76 -345 85 -20 2 -41 6 -46
10 -6 3 -13 2 -17 -4 -4 -6 -10 -8 -15 -5 -9 6 -127 14 -133 10z"/>
<path d="M225 8195 c-76 -27 -157 -99 -197 -175 -17 -34 -23 -61 -22 -110 0
-77 11 -96 130 -227 148 -163 157 -170 227 -179 23 -4 44 -7 47 -7 20 -4 102
18 143 39 48 24 127 98 127 119 0 6 5 16 12 23 6 6 13 20 14 29 17 108 7 160
-44 223 -130 161 -213 248 -253 264 -46 19 -134 19 -184 1z"/>
<path d="M4429 8166 c-2 -2 -24 -7 -49 -11 -51 -8 -110 -30 -110 -42 0 -4 -12
-21 -26 -38 -14 -16 -47 -57 -72 -90 -48 -62 -63 -81 -96 -118 -10 -12 -32
-41 -49 -64 -17 -24 -34 -43 -39 -43 -4 0 -8 -6 -8 -14 0 -8 -3 -16 -8 -18 -4
-1 -23 -23 -42 -48 -19 -25 -37 -47 -40 -50 -3 -3 -21 -25 -40 -50 -19 -25
-37 -47 -40 -50 -3 -3 -21 -25 -40 -50 -19 -25 -39 -50 -45 -56 -5 -6 -21 -26
-35 -44 -26 -34 -102 -131 -150 -190 -16 -19 -63 -80 -106 -135 -43 -55 -83
-105 -89 -112 -17 -20 -27 -33 -125 -158 -52 -66 -97 -122 -100 -125 -3 -3
-17 -21 -30 -40 -13 -19 -27 -37 -31 -40 -4 -3 -24 -27 -45 -55 -21 -27 -42
-55 -48 -62 -13 -14 -19 -23 -66 -83 -19 -25 -37 -47 -40 -50 -3 -3 -18 -23
-34 -45 -16 -22 -36 -47 -43 -55 -12 -14 -65 -81 -138 -176 -79 -104 -218
-226 -341 -301 -62 -38 -216 -99 -268 -107 -21 -4 -42 -8 -46 -11 -4 -2 -27
-7 -51 -10 -24 -3 -51 -8 -59 -10 -41 -13 -357 -5 -410 10 -8 2 -37 7 -64 10
-27 3 -51 7 -55 9 -3 2 -24 7 -46 10 -37 6 -218 56 -257 71 -21 8 -23 -1 -6
-19 7 -7 24 -27 38 -45 14 -18 30 -38 35 -44 21 -24 185 -226 274 -337 50 -63
97 -122 104 -130 6 -8 37 -47 67 -85 72 -94 73 -94 90 -113 8 -10 26 -33 40
-52 14 -19 30 -42 37 -50 44 -56 81 -103 103 -131 44 -58 164 -203 195 -236
16 -17 44 -46 61 -65 40 -43 193 -187 230 -215 85 -66 124 -93 133 -93 5 0 11
-4 13 -8 3 -7 155 -86 168 -87 3 -1 32 -11 65 -24 118 -45 291 -75 420 -74
167 2 307 27 485 88 84 29 233 96 238 107 2 5 12 8 23 8 10 0 19 4 19 9 0 5 8
11 19 14 17 4 190 114 201 128 3 3 12 10 21 15 20 11 77 56 138 109 25 22 375
368 778 770 710 708 732 730 718 752 -8 12 -15 29 -15 38 0 8 -4 15 -10 15 -5
0 -12 11 -16 25 -3 14 -9 25 -13 25 -3 0 -12 13 -19 29 -7 15 -44 84 -84 152
-39 68 -80 142 -92 164 -12 22 -24 42 -28 43 -5 2 -8 8 -8 13 0 5 -17 37 -38
72 -21 34 -45 78 -55 97 -10 19 -29 53 -43 75 -13 22 -29 49 -34 60 -6 11 -21
38 -35 60 -13 22 -31 56 -40 75 -9 19 -19 37 -23 40 -4 3 -16 23 -28 45 -22
43 -66 121 -95 170 -10 17 -30 53 -44 80 -15 28 -32 57 -39 65 -6 8 -18 29
-27 45 -38 70 -83 151 -111 199 -17 28 -52 89 -78 136 -47 84 -69 124 -111
198 -12 20 -35 62 -52 92 -17 30 -37 66 -46 80 -9 14 -23 37 -30 51 -24 47
-99 118 -112 105z"/>
<path d="M1206 7963 c-4 -4 -14 -8 -24 -10 -42 -6 -113 -46 -155 -87 -60 -60
-90 -124 -93 -202 -4 -79 6 -99 113 -237 45 -59 83 -112 83 -117 0 -6 4 -10 8
-10 4 0 25 -25 47 -56 22 -31 48 -64 58 -73 9 -8 17 -21 17 -27 0 -7 4 -14 8
-16 4 -1 30 -32 57 -68 27 -36 53 -69 58 -75 4 -5 28 -37 53 -70 25 -33 57
-75 72 -94 15 -18 31 -41 36 -50 11 -18 23 -34 47 -59 47 -51 63 -87 61 -134
-5 -139 -126 -250 -274 -249 -85 0 -137 21 -188 75 -67 72 -80 87 -80 91 0 5
-22 32 -65 81 -11 12 -29 35 -40 50 -18 25 -72 91 -85 104 -3 3 -21 25 -40 50
-58 76 -64 83 -87 107 -13 13 -23 26 -23 29 0 7 -52 66 -98 111 -49 48 -95 66
-167 66 -92 0 -155 -26 -224 -92 -72 -69 -101 -168 -71 -244 11 -27 60 -95 95
-133 5 -6 21 -26 35 -44 14 -18 33 -42 44 -54 10 -11 37 -46 60 -76 48 -64
106 -120 124 -120 4 0 17 -8 28 -18 34 -32 320 -195 339 -192 3 0 32 -13 65
-30 33 -17 61 -30 62 -29 2 0 10 -2 18 -5 24 -7 114 -38 130 -44 8 -3 17 -6
20 -7 3 0 15 -4 28 -9 12 -4 32 -9 45 -10 12 -2 29 -6 37 -8 31 -11 117 -28
164 -34 26 -3 65 -7 85 -9 41 -5 223 -6 261 -2 19 3 117 23 150 32 3 1 31 13
64 28 32 15 62 27 67 27 5 0 9 4 9 8 0 5 18 18 40 31 52 29 240 216 240 238 0
3 12 20 28 37 15 17 39 47 54 66 43 56 277 354 291 370 7 8 22 28 34 44 l23
28 -22 32 c-12 17 -35 47 -50 66 -36 43 -32 39 -109 140 -35 47 -69 91 -76
100 -7 8 -42 53 -77 100 -36 47 -74 95 -86 107 -11 12 -20 25 -20 28 0 4 -6
13 -12 20 -16 18 -23 26 -83 105 -28 36 -52 67 -55 70 -3 3 -21 26 -40 52 -19
26 -43 50 -52 53 -10 4 -18 10 -18 14 0 4 -19 17 -42 29 -164 81 -344 -23
-372 -215 -4 -30 3 -74 19 -118 5 -14 2 -13 -11 6 -11 14 -25 32 -31 40 -13
14 -73 95 -103 139 -8 12 -22 30 -30 40 -8 10 -52 70 -98 133 -93 129 -139
168 -206 172 -24 2 -49 5 -54 9 -5 3 -12 2 -16 -1z"/>
<path d="M10260 7862 c0 -4 -24 -7 -53 -7 -48 -1 -129 -9 -187 -19 -67 -13
-92 -19 -175 -48 -299 -101 -536 -289 -719 -570 -31 -47 -56 -90 -56 -94 0 -4
-6 -15 -14 -23 -8 -9 -22 -32 -33 -51 -17 -31 -125 -214 -163 -275 -56 -90
-116 -192 -118 -202 -2 -7 -8 -13 -13 -13 -5 0 -8 -3 -7 -7 2 -12 -24 -63 -32
-63 -4 0 -10 -8 -14 -17 -3 -10 -15 -31 -26 -48 -11 -16 -23 -37 -27 -45 -3
-8 -9 -17 -12 -20 -10 -8 -61 -89 -61 -96 0 -4 -16 -29 -35 -55 -19 -27 -35
-54 -35 -59 0 -6 -4 -10 -10 -10 -5 0 -10 -4 -10 -9 0 -8 -129 -218 -190 -311
-6 -8 -40 -62 -76 -120 -36 -58 -73 -116 -82 -130 -9 -14 -15 -27 -13 -29 1
-2 -1 -7 -6 -10 -5 -3 -30 -36 -56 -73 -83 -118 -205 -243 -305 -315 -136 -97
-333 -178 -477 -198 -22 -3 -60 -8 -85 -11 -69 -10 -278 -6 -350 6 -36 6 -74
11 -84 11 -11 0 -27 4 -38 10 -12 7 -18 6 -18 -1 0 -10 52 -110 70 -135 4 -5
29 -50 55 -100 63 -118 90 -165 142 -253 24 -41 43 -76 43 -79 0 -3 8 -17 19
-31 27 -40 66 -110 151 -277 73 -142 96 -184 172 -322 17 -32 38 -71 46 -88 9
-16 20 -33 25 -36 5 -3 8 -9 7 -13 -1 -4 20 -42 46 -84 134 -211 301 -380 511
-516 70 -45 303 -166 320 -166 4 0 20 -6 35 -14 38 -20 223 -65 299 -73 169
-18 366 -5 509 33 30 8 60 16 65 17 6 2 15 5 20 8 6 4 23 9 40 13 35 9 249
112 267 129 7 7 40 30 72 52 55 37 180 153 237 220 49 59 112 158 175 275 11
19 21 37 24 40 7 7 25 37 56 95 14 28 35 62 45 77 11 14 19 28 19 31 0 3 19
38 43 79 24 40 55 93 69 118 84 149 154 265 160 268 5 2 8 8 8 12 0 5 28 58
63 118 35 60 67 115 70 123 4 8 16 28 26 44 11 17 28 46 39 65 10 19 36 64 57
100 20 36 45 79 55 95 9 17 75 129 145 250 71 121 137 236 147 255 11 19 35
62 55 95 36 62 58 99 93 160 33 58 53 92 162 280 57 99 112 198 121 220 10 22
22 48 28 58 22 41 71 175 86 236 26 112 32 161 32 281 1 95 -1 117 -14 199 -8
54 -51 204 -72 251 -44 101 -126 237 -183 305 -39 47 -202 205 -210 205 -5 0
-15 6 -22 13 -68 62 -327 194 -414 210 -11 2 -38 9 -62 16 -24 7 -55 14 -70
16 -15 2 -38 6 -52 9 -14 3 -54 7 -88 10 -35 3 -66 7 -69 10 -3 2 -15 1 -28
-4 -13 -5 -26 -6 -29 -2 -9 9 -36 12 -36 4z"/>
</g>
</svg>
